<svg width="40" height="40" viewBox="0 0 40 40" fill="none" xmlns="http://www.w3.org/2000/svg">
<g id="add_circle">
<mask id="mask0_1278_681" style="mask-type:alpha" maskUnits="userSpaceOnUse" x="0" y="0" width="40" height="40">
<rect id="Bounding box" width="40" height="40" fill="#D9D9D9"/>
</mask>
<g mask="url(#mask0_1278_681)">
<path id="add_circle_2" d="M18.3333 28.3333H21.6667V21.6667H28.3333V18.3333H21.6667V11.6667H18.3333V18.3333H11.6667V21.6667H18.3333V28.3333ZM20 36.6667C17.6945 36.6667 15.5278 36.2289 13.5 35.3533C11.4722 34.4789 9.70834 33.2917 8.20834 31.7917C6.70834 30.2917 5.52112 28.5278 4.64668 26.5C3.77112 24.4722 3.33334 22.3055 3.33334 20C3.33334 17.6944 3.77112 15.5278 4.64668 13.5C5.52112 11.4722 6.70834 9.70833 8.20834 8.20833C9.70834 6.70833 11.4722 5.52055 13.5 4.64499C15.5278 3.77055 17.6945 3.33333 20 3.33333C22.3056 3.33333 24.4722 3.77055 26.5 4.64499C28.5278 5.52055 30.2917 6.70833 31.7917 8.20833C33.2917 9.70833 34.4789 11.4722 35.3533 13.5C36.2289 15.5278 36.6667 17.6944 36.6667 20C36.6667 22.3055 36.2289 24.4722 35.3533 26.5C34.4789 28.5278 33.2917 30.2917 31.7917 31.7917C30.2917 33.2917 28.5278 34.4789 26.5 35.3533C24.4722 36.2289 22.3056 36.6667 20 36.6667ZM20 33.3333C23.7222 33.3333 26.875 32.0417 29.4583 29.4583C32.0417 26.875 33.3333 23.7222 33.3333 20C33.3333 16.2778 32.0417 13.125 29.4583 10.5417C26.875 7.95833 23.7222 6.66666 20 6.66666C16.2778 6.66666 13.125 7.95833 10.5417 10.5417C7.95834 13.125 6.66668 16.2778 6.66668 20C6.66668 23.7222 7.95834 26.875 10.5417 29.4583C13.125 32.0417 16.2778 33.3333 20 33.3333Z" fill="white"/>
</g>
</g>
</svg>
