<svg width="40" height="41" viewBox="0 0 40 41" fill="none" xmlns="http://www.w3.org/2000/svg">
<g id="bi:filetype-json">
<path id="Vector" fill-rule="evenodd" clip-rule="evenodd" d="M35 11.25V27.5H32.5V11.25H27.5C26.5054 11.25 25.5516 10.8549 24.8484 10.1517C24.1451 9.44839 23.75 8.49456 23.75 7.5V2.5H10C9.33696 2.5 8.70108 2.76339 8.23224 3.23223C7.7634 3.70107 7.5 4.33696 7.5 5V27.5H5V5C5 3.67392 5.52679 2.40215 6.46447 1.46447C7.40215 0.526784 8.67392 0 10 0L23.75 0L35 11.25ZM10.3775 38.225C10.2116 37.8729 10.1173 37.4913 10.1 37.1025H12.01C12.0447 37.2977 12.1192 37.4836 12.2289 37.6488C12.3386 37.814 12.4811 37.9548 12.6475 38.0625C12.8225 38.185 13.0325 38.28 13.2725 38.3475C13.51 38.4175 13.775 38.45 14.07 38.45C14.48 38.45 14.8225 38.3925 15.1025 38.275C15.3575 38.1797 15.579 38.012 15.74 37.7925C15.882 37.5778 15.9553 37.3249 15.95 37.0675C15.9574 36.911 15.9266 36.7551 15.8604 36.6132C15.7943 36.4712 15.6946 36.3474 15.57 36.2525C15.3175 36.0525 14.93 35.8925 14.4125 35.77L12.8675 35.4125C12.3913 35.3117 11.9357 35.1308 11.52 34.8775C11.1526 34.6525 10.8495 34.3365 10.64 33.96C10.4273 33.5567 10.3215 33.1058 10.3325 32.65C10.3325 32.04 10.4925 31.5075 10.8075 31.0525C11.1275 30.6 11.5675 30.2475 12.1275 29.9975C12.69 29.7475 13.3375 29.625 14.07 29.625C14.83 29.625 15.48 29.75 16.0175 30.005C16.56 30.26 16.9775 30.6025 17.2675 31.03C17.5675 31.455 17.7325 31.9275 17.7675 32.445H15.8925C15.8497 32.2078 15.7464 31.9856 15.5925 31.8C15.4282 31.6006 15.2168 31.4451 14.9775 31.3475C14.6841 31.2279 14.3692 31.1701 14.0525 31.1775C13.5125 31.1775 13.085 31.3025 12.7725 31.5575C12.6255 31.67 12.5071 31.8155 12.4267 31.9823C12.3464 32.1491 12.3064 32.3324 12.31 32.5175C12.31 32.82 12.43 33.0675 12.67 33.2675C12.9687 33.4888 13.3143 33.6385 13.68 33.705L15.2325 34.0625C15.775 34.1875 16.2475 34.3625 16.6475 34.59C17.0333 34.8007 17.3566 35.1094 17.585 35.485C17.81 35.855 17.9225 36.3225 17.9225 36.885C17.9225 37.5025 17.765 38.05 17.4525 38.525C17.1197 39.0142 16.6514 39.3956 16.105 39.6225C15.52 39.885 14.805 40.0175 13.96 40.0175C13.325 40.0175 12.77 39.9425 12.2975 39.7925C11.8621 39.6619 11.4563 39.4479 11.1025 39.1625C10.7973 38.9048 10.5502 38.5852 10.3775 38.225ZM2.61751 38.1425C2.47956 37.7697 2.41011 37.375 2.4125 36.9775H4.3225C4.32772 37.2143 4.39127 37.4461 4.5075 37.6525C4.62262 37.8488 4.78921 38.0098 4.98927 38.1182C5.18933 38.2266 5.41522 38.2782 5.6425 38.2675C6.1175 38.2675 6.4675 38.13 6.6975 37.8575C6.925 37.5825 7.04 37.195 7.04 36.6925V29.83H9.01751V36.6425C9.01751 37.7425 8.72001 38.5775 8.125 39.155C7.53251 39.73 6.71251 40.0175 5.66251 40.0175C5.17882 40.0262 4.69759 39.9466 4.2425 39.7825C3.85964 39.6362 3.51265 39.4095 3.225 39.1175C2.95842 38.8371 2.75173 38.5054 2.61751 38.1425ZM25.345 34.18V35.485C25.345 36.125 25.2475 36.66 25.0525 37.0875C24.8864 37.4829 24.6061 37.8198 24.2475 38.055C23.8934 38.2687 23.486 38.3779 23.0725 38.37C22.6591 38.3771 22.2519 38.268 21.8975 38.055C21.5415 37.8181 21.2633 37.4816 21.0975 37.0875C20.8876 36.5801 20.7879 36.0339 20.805 35.485V34.18C20.805 33.535 20.9025 33.0025 21.0975 32.5775C21.2633 32.1834 21.5415 31.8469 21.8975 31.61C22.2503 31.3925 22.6581 31.2806 23.0725 31.2875C23.515 31.2875 23.905 31.395 24.2475 31.61C24.6061 31.8452 24.8864 32.1821 25.0525 32.5775C25.2475 33.0025 25.345 33.535 25.345 34.18ZM27.3525 35.4775V34.195C27.3525 33.2525 27.18 32.4425 26.84 31.7625C26.5183 31.1008 26.0042 30.5518 25.365 30.1875C24.7325 29.8225 23.9675 29.6375 23.075 29.6375C22.185 29.6375 21.42 29.8225 20.775 30.1875C20.1356 30.5485 19.6219 31.0963 19.3025 31.7575C18.96 32.435 18.79 33.2475 18.79 34.195V35.4775C18.79 36.415 18.96 37.225 19.3025 37.91C19.645 38.5875 20.135 39.11 20.775 39.475C21.42 39.8375 22.185 40.0175 23.075 40.0175C23.9675 40.0175 24.7325 39.8375 25.3675 39.475C26.0075 39.11 26.4975 38.5875 26.84 37.91C27.18 37.225 27.3525 36.415 27.3525 35.4775ZM30.5775 33.14V39.8275H28.7125V29.83H30.3675L34.7475 36.48H34.8275V29.83H36.7025V39.83H35.0625L30.66 33.14H30.58H30.5775Z" fill="white"/>
</g>
</svg>
