<svg width="24" height="24" viewBox="0 0 24 24" fill="none" xmlns="http://www.w3.org/2000/svg">
<mask id="mask0_1546_8200" style="mask-type:alpha" maskUnits="userSpaceOnUse" x="0" y="0" width="24" height="24">
<rect x="24" width="24" height="24" transform="rotate(90 24 0)" fill="#D9D9D9"/>
</mask>
<g mask="url(#mask0_1546_8200)">
<path d="M7 8.4L10.6 12L7 15.6L8.4 17L12 13.4L15.6 17L17 15.6L13.4 12L17 8.4L15.6 7L12 10.6L8.4 7L7 8.4ZM2 12C2 10.6167 2.26267 9.31667 2.788 8.1C3.31267 6.88333 4.025 5.825 4.925 4.925C5.825 4.025 6.88333 3.31267 8.1 2.788C9.31667 2.26267 10.6167 2 12 2C13.3833 2 14.6833 2.26267 15.9 2.788C17.1167 3.31267 18.175 4.025 19.075 4.925C19.975 5.825 20.6877 6.88333 21.213 8.1C21.7377 9.31667 22 10.6167 22 12C22 13.3833 21.7377 14.6833 21.213 15.9C20.6877 17.1167 19.975 18.175 19.075 19.075C18.175 19.975 17.1167 20.6873 15.9 21.212C14.6833 21.7373 13.3833 22 12 22C10.6167 22 9.31667 21.7373 8.1 21.212C6.88333 20.6873 5.825 19.975 4.925 19.075C4.025 18.175 3.31267 17.1167 2.788 15.9C2.26267 14.6833 2 13.3833 2 12ZM4 12C4 14.2333 4.775 16.125 6.325 17.675C7.875 19.225 9.76667 20 12 20C14.2333 20 16.125 19.225 17.675 17.675C19.225 16.125 20 14.2333 20 12C20 9.76667 19.225 7.875 17.675 6.325C16.125 4.775 14.2333 4 12 4C9.76667 4 7.875 4.775 6.325 6.325C4.775 7.875 4 9.76667 4 12Z" fill="#ffffff"/>
</g>
</svg>
