<svg width="100%" height="100%" viewBox="0 0 54 55" fill="none" xmlns="http://www.w3.org/2000/svg">
  <path
    d="M40.2608 50.8122H13.7393C8.20256 50.8122 3.72534 46.3164 3.72534 40.7821V14.2178C3.72534 8.67218 8.21395 4.18774 13.7393 4.18774H40.2608C45.7975 4.18774 50.2747 8.68359 50.2747 14.2178V40.7821C50.2747 46.3278 45.7975 50.8122 40.2608 50.8122Z"
    fill="#EBEEFB" />
  <path
    d="M27.1481 18.1089C27.1481 18.1089 23.7418 17.5726 20.7569 14.3205V10.863H17.4418C15.4937 10.863 13.8873 12.4491 13.8873 14.4004C13.8873 16.4201 13.8873 18.8962 13.8873 20.6421H27.1481V18.1089Z"
    fill="url(#paint0_linear_332_9997)" />
  <path
    d="M13.8873 20.6421C13.8873 21.9429 13.8873 22.833 13.8873 22.8558V34.6545C13.8873 37.8267 14.6848 40.2002 16.2911 41.7863C17.362 42.8361 18.843 43.5435 20.7569 43.8973V20.6421"
    fill="url(#paint1_linear_332_9997)" />
  <path
    d="M31.4316 34.8486L26.0089 36.7085C24.9152 37.0851 24.1747 38.1919 24.1747 39.4585V43.8859L38.2671 38.0436C39.3835 37.5758 40.1241 36.4004 40.1241 35.0882V31.8932L31.4316 34.8486Z"
    fill="url(#paint2_linear_332_9997)" />
  <path d="M33.8354 34.027L31.4316 34.8486L40.1126 31.8932V30.6608L24.1633 24.0311"
    fill="url(#paint3_linear_332_9997)" />
  <path
    d="M39.0418 32.2583C39.6797 32.0415 40.1126 31.3911 40.1126 30.6608L24.1633 24.0311V29.0062C24.1633 29.9419 24.7101 30.7635 25.519 31.0488L33.8354 34.027"
    fill="url(#paint4_linear_332_9997)" />
  <defs>
    <linearGradient id="paint0_linear_332_9997" x1="26.425" y1="13.2921" x2="14.7363" y2="19.5587"
      gradientUnits="userSpaceOnUse">
      <stop stop-color="#2B3665" />
      <stop offset="0.3843" stop-color="#0F33CE" />
      <stop offset="0.4866" stop-color="#1A37D3" />
      <stop offset="0.6641" stop-color="#3644E0" />
      <stop offset="0.894" stop-color="#6457F4" />
      <stop offset="1" stop-color="#7B61FF" />
    </linearGradient>
    <linearGradient id="paint1_linear_332_9997" x1="21.1099" y1="23.6826" x2="15.2377" y2="36.96"
      gradientUnits="userSpaceOnUse">
      <stop stop-color="#2B3665" />
      <stop offset="0.4878" stop-color="#0F33CE" />
      <stop offset="0.7774" stop-color="#4E4EEB" />
      <stop offset="1" stop-color="#7B61FF" />
    </linearGradient>
    <linearGradient id="paint2_linear_332_9997" x1="24.1631" y1="37.8914" x2="40.1136" y2="37.8914"
      gradientUnits="userSpaceOnUse">
      <stop stop-color="#2B3665" />
      <stop offset="0.3184" stop-color="#0F33CE" />
      <stop offset="0.7038" stop-color="#4E4EEB" />
      <stop offset="1" stop-color="#7B61FF" />
    </linearGradient>
    <linearGradient id="paint3_linear_332_9997" x1="24.163" y1="29.441" x2="40.1136" y2="29.441"
      gradientUnits="userSpaceOnUse">
      <stop stop-color="#2B3665" />
      <stop offset="0.3184" stop-color="#0F33CE" />
      <stop offset="0.7038" stop-color="#4E4EEB" />
      <stop offset="1" stop-color="#7B61FF" />
    </linearGradient>
    <linearGradient id="paint4_linear_332_9997" x1="37.5674" y1="29.6157" x2="19.6301" y2="28.489"
      gradientUnits="userSpaceOnUse">
      <stop stop-color="#2B3665" />
      <stop offset="0.5347" stop-color="#0F33CE" />
      <stop offset="0.7978" stop-color="#4E4EEB" />
      <stop offset="1" stop-color="#7B61FF" />
    </linearGradient>
  </defs>
</svg>