<svg width="24" height="24" viewBox="0 0 24 24" fill="none" xmlns="http://www.w3.org/2000/svg">
    <mask id="pbdp257lya" style="mask-type:alpha" maskUnits="userSpaceOnUse" x="0" y="0" width="24" height="24">
        <path fill="#D9D9D9" d="M0 0h24v24H0z"/>
    </mask>
    <g mask="url(#pbdp257lya)">
        <path d="M1 21 12 2l11 19H1zm11-3a.968.968 0 0 0 .713-.288A.967.967 0 0 0 13 17a.967.967 0 0 0-.287-.712A.968.968 0 0 0 12 16a.965.965 0 0 0-.712.288A.965.965 0 0 0 11 17c0 .283.096.52.288.712A.965.965 0 0 0 12 18zm-1-3h2v-5h-2v5z" fill="#D3D9F6"/>
    </g>
</svg>
