<svg width="24" height="24" viewBox="0 0 24 24" fill="none" xmlns="http://www.w3.org/2000/svg">
    <mask id="q3v5nqmgsa" style="mask-type:alpha" maskUnits="userSpaceOnUse" x="0" y="0" width="24" height="24">
        <path fill="#D9D9D9" d="M0 0h24v24H0z"/>
    </mask>
    <g mask="url(#q3v5nqmgsa)">
        <path d="M7 13.5c.417 0 .77-.146 1.062-.438.292-.291.438-.645.438-1.062 0-.417-.146-.77-.438-1.062A1.444 1.444 0 0 0 7 10.5c-.417 0-.77.146-1.062.438A1.444 1.444 0 0 0 5.5 12c0 .417.146.77.438 1.062.291.292.645.438 1.062.438zm5 0c.417 0 .77-.146 1.062-.438.292-.291.438-.645.438-1.062 0-.417-.146-.77-.438-1.062A1.444 1.444 0 0 0 12 10.5c-.417 0-.77.146-1.062.438A1.444 1.444 0 0 0 10.5 12c0 .417.146.77.438 1.062.291.292.645.438 1.062.438zm5 0c.417 0 .77-.146 1.062-.438.292-.291.438-.645.438-1.062 0-.417-.146-.77-.438-1.062A1.444 1.444 0 0 0 17 10.5c-.417 0-.77.146-1.062.438A1.444 1.444 0 0 0 15.5 12c0 .417.146.77.438 1.062.291.292.645.438 1.062.438zM12 22a9.733 9.733 0 0 1-3.9-.788 10.092 10.092 0 0 1-3.175-2.137c-.9-.9-1.612-1.958-2.137-3.175A9.733 9.733 0 0 1 2 12c0-1.383.263-2.683.788-3.9a10.092 10.092 0 0 1 2.137-3.175c.9-.9 1.958-1.613 3.175-2.138A9.743 9.743 0 0 1 12 2c1.383 0 2.683.262 3.9.787a10.105 10.105 0 0 1 3.175 2.138c.9.9 1.612 1.958 2.137 3.175A9.733 9.733 0 0 1 22 12a9.733 9.733 0 0 1-.788 3.9 10.092 10.092 0 0 1-2.137 3.175c-.9.9-1.958 1.612-3.175 2.137A9.733 9.733 0 0 1 12 22z" fill="#D3D9F6"/>
    </g>
</svg>
