<svg width="24" height="24" viewBox="0 0 24 24" fill="none" xmlns="http://www.w3.org/2000/svg">
    <mask id="5fmtiom0fa" style="mask-type:alpha" maskUnits="userSpaceOnUse" x="0" y="0" width="24" height="24">
        <path fill="#D9D9D9" d="M0 0h24v24H0z"/>
    </mask>
    <g mask="url(#5fmtiom0fa)">
        <path d="m9.4 16.5 2.6-2.6 2.6 2.6 1.4-1.4-2.6-2.6L16 9.9l-1.4-1.4-2.6 2.6-2.6-2.6L8 9.9l2.6 2.6L8 15.1l1.4 1.4zM7 21c-.55 0-1.02-.196-1.412-.587A1.927 1.927 0 0 1 5 19V6H4V4h5V3h6v1h5v2h-1v13c0 .55-.196 1.021-.587 1.413A1.928 1.928 0 0 1 17 21H7z" fill="#D3D9F6"/>
    </g>
</svg>
